<svg width="1746" height="784" viewBox="0 0 1746 784" fill="none" xmlns="http://www.w3.org/2000/svg">
<path d="M764.224 0.390625H622.94C553.538 0.390625 505.238 69.3576 528.966 134.578L740.88 717.086C755.255 756.598 792.809 782.898 834.855 782.898H976.138C1045.54 782.898 1093.84 713.931 1070.11 648.71L858.198 66.2029C843.824 26.691 806.269 0.390625 764.224 0.390625Z" fill="none"/>
<path d="M284.075 0.390625H142.792C73.3892 0.390625 25.09 69.3576 48.8171 134.578L260.732 717.086C275.106 756.598 312.661 782.898 354.706 782.898H495.99C565.392 782.898 613.692 713.931 589.964 648.71L378.05 66.2029C363.675 26.691 326.121 0.390625 284.075 0.390625Z" fill="none"/>
<path d="M1571.35 0.236328C1205.6 0.236328 1060.04 121.912 1086.11 336.774C1092.3 387.767 1160.69 394.674 1204.27 367.493C1262.26 331.332 1329.09 331.332 1407.61 331.332H1581.24C1606.31 331.332 1628.74 315.738 1637.48 292.233L1715.93 81.138C1730.5 41.9402 1701.51 0.236328 1659.69 0.236328H1571.35Z" fill="none"/>
<path d="M1177.89 619.242C1177.89 448.979 1370.41 448.979 1370.41 448.979H1581.11C1606.25 448.979 1628.73 464.651 1637.42 488.241L1716.26 702.315C1730.69 741.485 1701.69 783.052 1659.95 783.052H1338.16C1338.16 783.052 1177.89 783.052 1177.89 619.242Z" fill="none"/>
</svg>
