<svg width="53" height="24" viewBox="0 0 53 24" fill="none" xmlns="http://www.w3.org/2000/svg">
<g clip-path="url(#clip0_130_195)">
<path d="M10.7657 0H0.0151367L8.65775 23.9848H19.4083L10.7657 0Z" fill="white"/>
<path d="M25.3404 0H14.5898L23.2325 23.9848H33.983L25.3404 0Z" fill="white"/>
<path d="M47.6999 0C34.5703 0 30.791 5.21673 33.9229 14.2053C36.2266 10.1445 39.0572 10.1445 42.7311 10.1445H49.2658L52.9999 0H47.6999Z" fill="white"/>
<path d="M35.7598 18.9658C35.7598 13.749 41.6018 13.749 41.6018 13.749H49.2657L52.9998 23.9848H40.6231C40.6231 23.9848 35.7598 23.9848 35.7598 18.9658Z" fill="white"/>
<path d="M25.3404 0H14.5898L23.2325 23.9848H33.983L25.3404 0Z" fill="white"/>
<path d="M10.7657 0H0.0151367L8.65775 23.9848H19.4083L10.7657 0Z" fill="white"/>
<path d="M47.6999 0C34.5703 0 30.791 5.21673 33.9229 14.2053C36.2266 10.1445 39.0572 10.1445 42.7311 10.1445H49.2658L52.9999 0H47.6999Z" fill="white"/>
<path d="M35.7598 18.9658C35.7598 13.749 41.6018 13.749 41.6018 13.749H49.2657L52.9998 23.9848H40.6231C40.6231 23.9848 35.7598 23.9848 35.7598 18.9658Z" fill="white"/>
</g>
<defs>
<clipPath id="clip0_130_195">
<rect width="53" height="24" fill="white"/>
</clipPath>
</defs>
</svg>
