<svg width="80" height="80" viewBox="0 0 80 80" fill="none" xmlns="http://www.w3.org/2000/svg">
<path fill-rule="evenodd" clip-rule="evenodd" d="M31.4215 15.1935C18.8715 23.2535 11.8993 32.6351 10.5048 43.3385C8.33317 60.0001 23.2332 68.1551 30.7832 60.8285C38.3332 53.5018 33.8082 44.2001 28.3415 41.6568C22.8748 39.1135 19.5315 40.0001 20.1148 36.6018C20.6982 33.2035 28.4748 23.7851 35.3082 19.3985C35.55 19.1923 35.7042 18.9018 35.7395 18.586C35.7748 18.2703 35.6885 17.9529 35.4982 17.6985L33.8082 15.5001C33.0748 14.5468 32.3715 14.5834 31.4215 15.1918M64.4648 15.1935C51.9148 23.2535 44.9426 32.6351 43.5482 43.3385C41.3748 60.0001 56.2748 68.1551 63.8248 60.8285C71.3748 53.5018 66.8498 44.2001 61.3815 41.6568C55.9132 39.1135 52.5715 40.0001 53.1548 36.6018C53.7382 33.2035 61.5165 23.7851 68.3498 19.3985C68.5914 19.1921 68.7453 18.9015 68.7803 18.5857C68.8153 18.2699 68.7287 17.9527 68.5382 17.6985L66.8498 15.5001C66.1165 14.5468 65.4132 14.5834 64.4648 15.1918" fill="black"/>
</svg>
