<svg width="1760" height="789" viewBox="0 0 1760 789" fill="none" xmlns="http://www.w3.org/2000/svg">
<path d="M357.5 0H0.5L287.5 788.5H644.5L357.5 0Z" fill="white"/>
<path d="M841.5 0H484.5L771.5 788.5H1128.5L841.5 0Z" fill="white"/>
<path d="M1584 0C1148 0 1022.5 171.5 1126.5 467C1203 333.5 1297 333.5 1419 333.5H1636L1760 0H1584Z" fill="white"/>
<path d="M1187.5 623.5C1187.5 452 1381.5 452 1381.5 452H1636L1760 788.5H1349C1349 788.5 1187.5 788.5 1187.5 623.5Z" fill="white"/>
<path d="M841.5 0H484.5L771.5 788.5H1128.5L841.5 0Z" fill="white"/>
<path d="M357.5 0H0.5L287.5 788.5H644.5L357.5 0Z" fill="white"/>
<path d="M1584 0C1148 0 1022.5 171.5 1126.5 467C1203 333.5 1297 333.5 1419 333.5H1636L1760 0H1584Z" fill="white"/>
<path d="M1187.5 623.5C1187.5 452 1381.5 452 1381.5 452H1636L1760 788.5H1349C1349 788.5 1187.5 788.5 1187.5 623.5Z" fill="white"/>
</svg>
